<svg xmlns="http://www.w3.org/2000/svg" xmlns:xlink="http://www.w3.org/1999/xlink" 
                shape-rendering="optimizeSpeed" viewBox="0 0 16 16"><rect width="1" height="1" x="0" y="0" fill="transparent">
      
    </rect><rect width="1" height="1" x="1" y="0" fill="transparent">
      
    </rect><rect width="1" height="1" x="2" y="0" fill="transparent">
      
    </rect><rect width="1" height="1" x="3" y="0" fill="transparent">
      
    </rect><rect width="1" height="1" x="4" y="0" fill="transparent">
      
    </rect><rect width="1" height="1" x="5" y="0" fill="transparent">
      
    </rect><rect width="1" height="1" x="6" y="0" fill="transparent">
      
    </rect><rect width="1" height="1" x="7" y="0" fill="transparent">
      
    </rect><rect width="1" height="1" x="8" y="0" fill="transparent">
      
    </rect><rect width="1" height="1" x="9" y="0" fill="transparent">
      
    </rect><rect width="1" height="1" x="10" y="0" fill="transparent">
      
    </rect><rect width="1" height="1" x="11" y="0" fill="transparent">
      
    </rect><rect width="1" height="1" x="12" y="0" fill="transparent">
      
    </rect><rect width="1" height="1" x="13" y="0" fill="transparent">
      
    </rect><rect width="1" height="1" x="14" y="0" fill="transparent">
      
    </rect><rect width="1" height="1" x="15" y="0" fill="transparent">
      
    </rect><rect width="1" height="1" x="0" y="1" fill="transparent">
      
    </rect><rect width="1" height="1" x="1" y="1" fill="transparent">
      
    </rect><rect width="1" height="1" x="2" y="1" fill="transparent">
      
    </rect><rect width="1" height="1" x="3" y="1" fill="transparent">
      
    </rect><rect width="1" height="1" x="4" y="1" fill="transparent">
      
    </rect><rect width="1" height="1" x="5" y="1" fill="transparent">
      
    </rect><rect width="1" height="1" x="6" y="1" fill="#1f2937">
      
    </rect><rect width="1" height="1" x="7" y="1" fill="#94a3b8">
      
    </rect><rect width="1" height="1" x="8" y="1" fill="#94a3b8">
      
    </rect><rect width="1" height="1" x="9" y="1" fill="#475569">
      
    </rect><rect width="1" height="1" x="10" y="1" fill="transparent">
      
    </rect><rect width="1" height="1" x="11" y="1" fill="transparent">
      
    </rect><rect width="1" height="1" x="12" y="1" fill="transparent">
      
    </rect><rect width="1" height="1" x="13" y="1" fill="transparent">
      
    </rect><rect width="1" height="1" x="14" y="1" fill="transparent">
      
    </rect><rect width="1" height="1" x="15" y="1" fill="transparent">
      
    </rect><rect width="1" height="1" x="0" y="2" fill="transparent">
      
    </rect><rect width="1" height="1" x="1" y="2" fill="transparent">
      
    </rect><rect width="1" height="1" x="2" y="2" fill="transparent">
      
    </rect><rect width="1" height="1" x="3" y="2" fill="transparent">
      
    </rect><rect width="1" height="1" x="4" y="2" fill="#18181b">
      
    </rect><rect width="1" height="1" x="5" y="2" fill="#64748b">
      
    </rect><rect width="1" height="1" x="6" y="2" fill="#94a3b8">
      
    </rect><rect width="1" height="1" x="7" y="2" fill="#334155">
      
    </rect><rect width="1" height="1" x="8" y="2" fill="#1e293b">
      
    </rect><rect width="1" height="1" x="9" y="2" fill="#64748b">
      
    </rect><rect width="1" height="1" x="10" y="2" fill="#94a3b8">
      
    </rect><rect width="1" height="1" x="11" y="2" fill="#374151">
      
    </rect><rect width="1" height="1" x="12" y="2" fill="transparent">
      
    </rect><rect width="1" height="1" x="13" y="2" fill="transparent">
      
    </rect><rect width="1" height="1" x="14" y="2" fill="transparent">
      
    </rect><rect width="1" height="1" x="15" y="2" fill="transparent">
      
    </rect><rect width="1" height="1" x="0" y="3" fill="transparent">
      
    </rect><rect width="1" height="1" x="1" y="3" fill="transparent">
      
    </rect><rect width="1" height="1" x="2" y="3" fill="transparent">
      
    </rect><rect width="1" height="1" x="3" y="3" fill="#475569">
      
    </rect><rect width="1" height="1" x="4" y="3" fill="#93c5fd">
      
    </rect><rect width="1" height="1" x="5" y="3" fill="#64748b">
      
    </rect><rect width="1" height="1" x="6" y="3" fill="transparent">
      
    </rect><rect width="1" height="1" x="7" y="3" fill="transparent">
      
    </rect><rect width="1" height="1" x="8" y="3" fill="#0f172a">
      
    </rect><rect width="1" height="1" x="9" y="3" fill="transparent">
      
    </rect><rect width="1" height="1" x="10" y="3" fill="#334155">
      
    </rect><rect width="1" height="1" x="11" y="3" fill="#94a3b8">
      
    </rect><rect width="1" height="1" x="12" y="3" fill="#94a3b8">
      
    </rect><rect width="1" height="1" x="13" y="3" fill="#27272a">
      
    </rect><rect width="1" height="1" x="14" y="3" fill="transparent">
      
    </rect><rect width="1" height="1" x="15" y="3" fill="transparent">
      
    </rect><rect width="1" height="1" x="0" y="4" fill="transparent">
      
    </rect><rect width="1" height="1" x="1" y="4" fill="transparent">
      
    </rect><rect width="1" height="1" x="2" y="4" fill="#94a3b8">
      
    </rect><rect width="1" height="1" x="3" y="4" fill="#64748b">
      
    </rect><rect width="1" height="1" x="4" y="4" fill="#1e293b">
      
    </rect><rect width="1" height="1" x="5" y="4" fill="transparent">
      
    </rect><rect width="1" height="1" x="6" y="4" fill="#6b7280">
      
    </rect><rect width="1" height="1" x="7" y="4" fill="#64748b">
      
    </rect><rect width="1" height="1" x="8" y="4" fill="#475569">
      
    </rect><rect width="1" height="1" x="9" y="4" fill="#64748b">
      
    </rect><rect width="1" height="1" x="10" y="4" fill="#1f2937">
      
    </rect><rect width="1" height="1" x="11" y="4" fill="#0f172a">
      
    </rect><rect width="1" height="1" x="12" y="4" fill="#475569">
      
    </rect><rect width="1" height="1" x="13" y="4" fill="#94a3b8">
      
    </rect><rect width="1" height="1" x="14" y="4" fill="transparent">
      
    </rect><rect width="1" height="1" x="15" y="4" fill="transparent">
      
    </rect><rect width="1" height="1" x="0" y="5" fill="transparent">
      
    </rect><rect width="1" height="1" x="1" y="5" fill="transparent">
      
    </rect><rect width="1" height="1" x="2" y="5" fill="#94a3b8">
      
    </rect><rect width="1" height="1" x="3" y="5" fill="#0f172a">
      
    </rect><rect width="1" height="1" x="4" y="5" fill="#0f172a">
      
    </rect><rect width="1" height="1" x="5" y="5" fill="#334155">
      
    </rect><rect width="1" height="1" x="6" y="5" fill="#ffffff">
      
    </rect><rect width="1" height="1" x="7" y="5" fill="#d6d3d1">
      
    </rect><rect width="1" height="1" x="8" y="5" fill="#d6d3d1">
      
    </rect><rect width="1" height="1" x="9" y="5" fill="#ffffff">
      
    </rect><rect width="1" height="1" x="10" y="5" fill="#1e293b">
      
    </rect><rect width="1" height="1" x="11" y="5" fill="#0f172a">
      
    </rect><rect width="1" height="1" x="12" y="5" fill="transparent">
      
    </rect><rect width="1" height="1" x="13" y="5" fill="#64748b">
      
    </rect><rect width="1" height="1" x="14" y="5" fill="transparent">
      
    </rect><rect width="1" height="1" x="15" y="5" fill="transparent">
      
    </rect><rect width="1" height="1" x="0" y="6" fill="transparent">
      
    </rect><rect width="1" height="1" x="1" y="6" fill="transparent">
      
    </rect><rect width="1" height="1" x="2" y="6" fill="#94a3b8">
      
    </rect><rect width="1" height="1" x="3" y="6" fill="#1e293b">
      
    </rect><rect width="1" height="1" x="4" y="6" fill="transparent">
      
    </rect><rect width="1" height="1" x="5" y="6" fill="#64748b">
      
    </rect><rect width="1" height="1" x="6" y="6" fill="#ffffff">
      
    </rect><rect width="1" height="1" x="7" y="6" fill="#6b7280">
      
    </rect><rect width="1" height="1" x="8" y="6" fill="#ffffff">
      
    </rect><rect width="1" height="1" x="9" y="6" fill="#94a3b8">
      
    </rect><rect width="1" height="1" x="10" y="6" fill="#075985">
      
    </rect><rect width="1" height="1" x="11" y="6" fill="#334155">
      
    </rect><rect width="1" height="1" x="12" y="6" fill="#0f172a">
      
    </rect><rect width="1" height="1" x="13" y="6" fill="#64748b">
      
    </rect><rect width="1" height="1" x="14" y="6" fill="transparent">
      
    </rect><rect width="1" height="1" x="15" y="6" fill="transparent">
      
    </rect><rect width="1" height="1" x="0" y="7" fill="transparent">
      
    </rect><rect width="1" height="1" x="1" y="7" fill="transparent">
      
    </rect><rect width="1" height="1" x="2" y="7" fill="#94a3b8">
      
    </rect><rect width="1" height="1" x="3" y="7" fill="#1e293b">
      
    </rect><rect width="1" height="1" x="4" y="7" fill="#0f172a">
      
    </rect><rect width="1" height="1" x="5" y="7" fill="#e5e7eb">
      
    </rect><rect width="1" height="1" x="6" y="7" fill="#e4e4e7">
      
    </rect><rect width="1" height="1" x="7" y="7" fill="#64748b">
      
    </rect><rect width="1" height="1" x="8" y="7" fill="#ffffff">
      
    </rect><rect width="1" height="1" x="9" y="7" fill="#64748b">
      
    </rect><rect width="1" height="1" x="10" y="7" fill="#0ea5e9">
      
    </rect><rect width="1" height="1" x="11" y="7" fill="#164e63">
      
    </rect><rect width="1" height="1" x="12" y="7" fill="transparent">
      
    </rect><rect width="1" height="1" x="13" y="7" fill="#64748b">
      
    </rect><rect width="1" height="1" x="14" y="7" fill="transparent">
      
    </rect><rect width="1" height="1" x="15" y="7" fill="transparent">
      
    </rect><rect width="1" height="1" x="0" y="8" fill="transparent">
      
    </rect><rect width="1" height="1" x="1" y="8" fill="transparent">
      
    </rect><rect width="1" height="1" x="2" y="8" fill="#94a3b8">
      
    </rect><rect width="1" height="1" x="3" y="8" fill="#0f172a">
      
    </rect><rect width="1" height="1" x="4" y="8" fill="#334155">
      
    </rect><rect width="1" height="1" x="5" y="8" fill="#ffffff">
      
    </rect><rect width="1" height="1" x="6" y="8" fill="#a1a1aa">
      
    </rect><rect width="1" height="1" x="7" y="8" fill="#d1d5db">
      
    </rect><rect width="1" height="1" x="8" y="8" fill="#fee2e2">
      
    </rect><rect width="1" height="1" x="9" y="8" fill="#1e293b">
      
    </rect><rect width="1" height="1" x="10" y="8" fill="#22d3ee">
      
    </rect><rect width="1" height="1" x="11" y="8" fill="#0284c7">
      
    </rect><rect width="1" height="1" x="12" y="8" fill="transparent">
      
    </rect><rect width="1" height="1" x="13" y="8" fill="#64748b">
      
    </rect><rect width="1" height="1" x="14" y="8" fill="transparent">
      
    </rect><rect width="1" height="1" x="15" y="8" fill="transparent">
      
    </rect><rect width="1" height="1" x="0" y="9" fill="transparent">
      
    </rect><rect width="1" height="1" x="1" y="9" fill="transparent">
      
    </rect><rect width="1" height="1" x="2" y="9" fill="#94a3b8">
      
    </rect><rect width="1" height="1" x="3" y="9" fill="transparent">
      
    </rect><rect width="1" height="1" x="4" y="9" fill="#a1a1aa">
      
    </rect><rect width="1" height="1" x="5" y="9" fill="#ffffff">
      
    </rect><rect width="1" height="1" x="6" y="9" fill="#6b7280">
      
    </rect><rect width="1" height="1" x="7" y="9" fill="#ffffff">
      
    </rect><rect width="1" height="1" x="8" y="9" fill="#94a3b8">
      
    </rect><rect width="1" height="1" x="9" y="9" fill="#1e293b">
      
    </rect><rect width="1" height="1" x="10" y="9" fill="#0ea5e9">
      
    </rect><rect width="1" height="1" x="11" y="9" fill="#0ea5e9">
      
    </rect><rect width="1" height="1" x="12" y="9" fill="#111827">
      
    </rect><rect width="1" height="1" x="13" y="9" fill="#64748b">
      
    </rect><rect width="1" height="1" x="14" y="9" fill="transparent">
      
    </rect><rect width="1" height="1" x="15" y="9" fill="transparent">
      
    </rect><rect width="1" height="1" x="0" y="10" fill="transparent">
      
    </rect><rect width="1" height="1" x="1" y="10" fill="transparent">
      
    </rect><rect width="1" height="1" x="2" y="10" fill="#94a3b8">
      
    </rect><rect width="1" height="1" x="3" y="10" fill="#0f172a">
      
    </rect><rect width="1" height="1" x="4" y="10" fill="#f5f5f4">
      
    </rect><rect width="1" height="1" x="5" y="10" fill="#d6d3d1">
      
    </rect><rect width="1" height="1" x="6" y="10" fill="#9ca3af">
      
    </rect><rect width="1" height="1" x="7" y="10" fill="#ffffff">
      
    </rect><rect width="1" height="1" x="8" y="10" fill="#0e7490">
      
    </rect><rect width="1" height="1" x="9" y="10" fill="#0284c7">
      
    </rect><rect width="1" height="1" x="10" y="10" fill="#0e7490">
      
    </rect><rect width="1" height="1" x="11" y="10" fill="#22d3ee">
      
    </rect><rect width="1" height="1" x="12" y="10" fill="#1e293b">
      
    </rect><rect width="1" height="1" x="13" y="10" fill="#4b5563">
      
    </rect><rect width="1" height="1" x="14" y="10" fill="transparent">
      
    </rect><rect width="1" height="1" x="15" y="10" fill="transparent">
      
    </rect><rect width="1" height="1" x="0" y="11" fill="transparent">
      
    </rect><rect width="1" height="1" x="1" y="11" fill="transparent">
      
    </rect><rect width="1" height="1" x="2" y="11" fill="#64748b">
      
    </rect><rect width="1" height="1" x="3" y="11" fill="#94a3b8">
      
    </rect><rect width="1" height="1" x="4" y="11" fill="#ffffff">
      
    </rect><rect width="1" height="1" x="5" y="11" fill="#64748b">
      
    </rect><rect width="1" height="1" x="6" y="11" fill="#e5e7eb">
      
    </rect><rect width="1" height="1" x="7" y="11" fill="#d6d3d1">
      
    </rect><rect width="1" height="1" x="8" y="11" fill="#0c4a6e">
      
    </rect><rect width="1" height="1" x="9" y="11" fill="#22d3ee">
      
    </rect><rect width="1" height="1" x="10" y="11" fill="#075985">
      
    </rect><rect width="1" height="1" x="11" y="11" fill="#0284c7">
      
    </rect><rect width="1" height="1" x="12" y="11" fill="#60a5fa">
      
    </rect><rect width="1" height="1" x="13" y="11" fill="#94a3b8">
      
    </rect><rect width="1" height="1" x="14" y="11" fill="transparent">
      
    </rect><rect width="1" height="1" x="15" y="11" fill="transparent">
      
    </rect><rect width="1" height="1" x="0" y="12" fill="transparent">
      
    </rect><rect width="1" height="1" x="1" y="12" fill="transparent">
      
    </rect><rect width="1" height="1" x="2" y="12" fill="transparent">
      
    </rect><rect width="1" height="1" x="3" y="12" fill="#71717a">
      
    </rect><rect width="1" height="1" x="4" y="12" fill="#d4d4d8">
      
    </rect><rect width="1" height="1" x="5" y="12" fill="#64748b">
      
    </rect><rect width="1" height="1" x="6" y="12" fill="#ffffff">
      
    </rect><rect width="1" height="1" x="7" y="12" fill="#52525b">
      
    </rect><rect width="1" height="1" x="8" y="12" fill="transparent">
      
    </rect><rect width="1" height="1" x="9" y="12" fill="#0ea5e9">
      
    </rect><rect width="1" height="1" x="10" y="12" fill="#38bdf8">
      
    </rect><rect width="1" height="1" x="11" y="12" fill="#94a3b8">
      
    </rect><rect width="1" height="1" x="12" y="12" fill="#64748b">
      
    </rect><rect width="1" height="1" x="13" y="12" fill="#111827">
      
    </rect><rect width="1" height="1" x="14" y="12" fill="transparent">
      
    </rect><rect width="1" height="1" x="15" y="12" fill="transparent">
      
    </rect><rect width="1" height="1" x="0" y="13" fill="transparent">
      
    </rect><rect width="1" height="1" x="1" y="13" fill="transparent">
      
    </rect><rect width="1" height="1" x="2" y="13" fill="transparent">
      
    </rect><rect width="1" height="1" x="3" y="13" fill="transparent">
      
    </rect><rect width="1" height="1" x="4" y="13" fill="#18181b">
      
    </rect><rect width="1" height="1" x="5" y="13" fill="#78716c">
      
    </rect><rect width="1" height="1" x="6" y="13" fill="#ffffff">
      
    </rect><rect width="1" height="1" x="7" y="13" fill="#475569">
      
    </rect><rect width="1" height="1" x="8" y="13" fill="#0f172a">
      
    </rect><rect width="1" height="1" x="9" y="13" fill="#94a3b8">
      
    </rect><rect width="1" height="1" x="10" y="13" fill="#94a3b8">
      
    </rect><rect width="1" height="1" x="11" y="13" fill="#1e293b">
      
    </rect><rect width="1" height="1" x="12" y="13" fill="transparent">
      
    </rect><rect width="1" height="1" x="13" y="13" fill="transparent">
      
    </rect><rect width="1" height="1" x="14" y="13" fill="transparent">
      
    </rect><rect width="1" height="1" x="15" y="13" fill="transparent">
      
    </rect><rect width="1" height="1" x="0" y="14" fill="transparent">
      
    </rect><rect width="1" height="1" x="1" y="14" fill="transparent">
      
    </rect><rect width="1" height="1" x="2" y="14" fill="transparent">
      
    </rect><rect width="1" height="1" x="3" y="14" fill="transparent">
      
    </rect><rect width="1" height="1" x="4" y="14" fill="transparent">
      
    </rect><rect width="1" height="1" x="5" y="14" fill="transparent">
      
    </rect><rect width="1" height="1" x="6" y="14" fill="#44403c">
      
    </rect><rect width="1" height="1" x="7" y="14" fill="#94a3b8">
      
    </rect><rect width="1" height="1" x="8" y="14" fill="#94a3b8">
      
    </rect><rect width="1" height="1" x="9" y="14" fill="#475569">
      
    </rect><rect width="1" height="1" x="10" y="14" fill="transparent">
      
    </rect><rect width="1" height="1" x="11" y="14" fill="transparent">
      
    </rect><rect width="1" height="1" x="12" y="14" fill="transparent">
      
    </rect><rect width="1" height="1" x="13" y="14" fill="transparent">
      
    </rect><rect width="1" height="1" x="14" y="14" fill="transparent">
      
    </rect><rect width="1" height="1" x="15" y="14" fill="transparent">
      
    </rect><rect width="1" height="1" x="0" y="15" fill="transparent">
      
    </rect><rect width="1" height="1" x="1" y="15" fill="transparent">
      
    </rect><rect width="1" height="1" x="2" y="15" fill="transparent">
      
    </rect><rect width="1" height="1" x="3" y="15" fill="transparent">
      
    </rect><rect width="1" height="1" x="4" y="15" fill="transparent">
      
    </rect><rect width="1" height="1" x="5" y="15" fill="transparent">
      
    </rect><rect width="1" height="1" x="6" y="15" fill="transparent">
      
    </rect><rect width="1" height="1" x="7" y="15" fill="transparent">
      
    </rect><rect width="1" height="1" x="8" y="15" fill="transparent">
      
    </rect><rect width="1" height="1" x="9" y="15" fill="transparent">
      
    </rect><rect width="1" height="1" x="10" y="15" fill="transparent">
      
    </rect><rect width="1" height="1" x="11" y="15" fill="transparent">
      
    </rect><rect width="1" height="1" x="12" y="15" fill="transparent">
      
    </rect><rect width="1" height="1" x="13" y="15" fill="transparent">
      
    </rect><rect width="1" height="1" x="14" y="15" fill="transparent">
      
    </rect><rect width="1" height="1" x="15" y="15" fill="transparent">
      
    </rect></svg>