<svg xmlns="http://www.w3.org/2000/svg" xmlns:xlink="http://www.w3.org/1999/xlink" 
                shape-rendering="optimizeSpeed" viewBox="0 0 16 16"><rect width="1" height="1" x="0" y="0" fill="transparent">
      
    </rect><rect width="1" height="1" x="1" y="0" fill="transparent">
      
    </rect><rect width="1" height="1" x="2" y="0" fill="transparent">
      
    </rect><rect width="1" height="1" x="3" y="0" fill="transparent">
      
    </rect><rect width="1" height="1" x="4" y="0" fill="transparent">
      
    </rect><rect width="1" height="1" x="5" y="0" fill="transparent">
      
    </rect><rect width="1" height="1" x="6" y="0" fill="transparent">
      
    </rect><rect width="1" height="1" x="7" y="0" fill="transparent">
      
    </rect><rect width="1" height="1" x="8" y="0" fill="transparent">
      
    </rect><rect width="1" height="1" x="9" y="0" fill="transparent">
      
    </rect><rect width="1" height="1" x="10" y="0" fill="transparent">
      
    </rect><rect width="1" height="1" x="11" y="0" fill="transparent">
      
    </rect><rect width="1" height="1" x="12" y="0" fill="transparent">
      
    </rect><rect width="1" height="1" x="13" y="0" fill="transparent">
      
    </rect><rect width="1" height="1" x="14" y="0" fill="transparent">
      
    </rect><rect width="1" height="1" x="15" y="0" fill="transparent">
      
    </rect><rect width="1" height="1" x="0" y="1" fill="transparent">
      
    </rect><rect width="1" height="1" x="1" y="1" fill="transparent">
      
    </rect><rect width="1" height="1" x="2" y="1" fill="transparent">
      
    </rect><rect width="1" height="1" x="3" y="1" fill="transparent">
      
    </rect><rect width="1" height="1" x="4" y="1" fill="transparent">
      
    </rect><rect width="1" height="1" x="5" y="1" fill="#1c1917">
      
    </rect><rect width="1" height="1" x="6" y="1" fill="#a8a29e">
      
    </rect><rect width="1" height="1" x="7" y="1" fill="#27272a">
      
    </rect><rect width="1" height="1" x="8" y="1" fill="#a1a1aa">
      
    </rect><rect width="1" height="1" x="9" y="1" fill="#292524">
      
    </rect><rect width="1" height="1" x="10" y="1" fill="#52525b">
      
    </rect><rect width="1" height="1" x="11" y="1" fill="transparent">
      
    </rect><rect width="1" height="1" x="12" y="1" fill="transparent">
      
    </rect><rect width="1" height="1" x="13" y="1" fill="transparent">
      
    </rect><rect width="1" height="1" x="14" y="1" fill="transparent">
      
    </rect><rect width="1" height="1" x="15" y="1" fill="transparent">
      
    </rect><rect width="1" height="1" x="0" y="2" fill="transparent">
      
    </rect><rect width="1" height="1" x="1" y="2" fill="transparent">
      
    </rect><rect width="1" height="1" x="2" y="2" fill="transparent">
      
    </rect><rect width="1" height="1" x="3" y="2" fill="transparent">
      
    </rect><rect width="1" height="1" x="4" y="2" fill="#d4d4d8">
      
    </rect><rect width="1" height="1" x="5" y="2" fill="#57534e">
      
    </rect><rect width="1" height="1" x="6" y="2" fill="#a1a1aa">
      
    </rect><rect width="1" height="1" x="7" y="2" fill="#a8a29e">
      
    </rect><rect width="1" height="1" x="8" y="2" fill="#71717a">
      
    </rect><rect width="1" height="1" x="9" y="2" fill="#71717a">
      
    </rect><rect width="1" height="1" x="10" y="2" fill="#d4d4d8">
      
    </rect><rect width="1" height="1" x="11" y="2" fill="#1c1917">
      
    </rect><rect width="1" height="1" x="12" y="2" fill="#52525b">
      
    </rect><rect width="1" height="1" x="13" y="2" fill="transparent">
      
    </rect><rect width="1" height="1" x="14" y="2" fill="transparent">
      
    </rect><rect width="1" height="1" x="15" y="2" fill="transparent">
      
    </rect><rect width="1" height="1" x="0" y="3" fill="transparent">
      
    </rect><rect width="1" height="1" x="1" y="3" fill="transparent">
      
    </rect><rect width="1" height="1" x="2" y="3" fill="#78716c">
      
    </rect><rect width="1" height="1" x="3" y="3" fill="#a8a29e">
      
    </rect><rect width="1" height="1" x="4" y="3" fill="#52525b">
      
    </rect><rect width="1" height="1" x="5" y="3" fill="#d6d3d1">
      
    </rect><rect width="1" height="1" x="6" y="3" fill="#78716c">
      
    </rect><rect width="1" height="1" x="7" y="3" fill="#78716c">
      
    </rect><rect width="1" height="1" x="8" y="3" fill="#a8a29e">
      
    </rect><rect width="1" height="1" x="9" y="3" fill="#71717a">
      
    </rect><rect width="1" height="1" x="10" y="3" fill="#44403c">
      
    </rect><rect width="1" height="1" x="11" y="3" fill="#e4e4e7">
      
    </rect><rect width="1" height="1" x="12" y="3" fill="#71717a">
      
    </rect><rect width="1" height="1" x="13" y="3" fill="transparent">
      
    </rect><rect width="1" height="1" x="14" y="3" fill="transparent">
      
    </rect><rect width="1" height="1" x="15" y="3" fill="transparent">
      
    </rect><rect width="1" height="1" x="0" y="4" fill="transparent">
      
    </rect><rect width="1" height="1" x="1" y="4" fill="#18181b">
      
    </rect><rect width="1" height="1" x="2" y="4" fill="#44403c">
      
    </rect><rect width="1" height="1" x="3" y="4" fill="#d6d3d1">
      
    </rect><rect width="1" height="1" x="4" y="4" fill="#78716c">
      
    </rect><rect width="1" height="1" x="5" y="4" fill="#27272a">
      
    </rect><rect width="1" height="1" x="6" y="4" fill="#d4d4d8">
      
    </rect><rect width="1" height="1" x="7" y="4" fill="#57534e">
      
    </rect><rect width="1" height="1" x="8" y="4" fill="#d6d3d1">
      
    </rect><rect width="1" height="1" x="9" y="4" fill="#1c1917">
      
    </rect><rect width="1" height="1" x="10" y="4" fill="#e5e7eb">
      
    </rect><rect width="1" height="1" x="11" y="4" fill="#71717a">
      
    </rect><rect width="1" height="1" x="12" y="4" fill="#52525b">
      
    </rect><rect width="1" height="1" x="13" y="4" fill="#d6d3d1">
      
    </rect><rect width="1" height="1" x="14" y="4" fill="transparent">
      
    </rect><rect width="1" height="1" x="15" y="4" fill="transparent">
      
    </rect><rect width="1" height="1" x="0" y="5" fill="transparent">
      
    </rect><rect width="1" height="1" x="1" y="5" fill="#52525b">
      
    </rect><rect width="1" height="1" x="2" y="5" fill="#d6d3d1">
      
    </rect><rect width="1" height="1" x="3" y="5" fill="#57534e">
      
    </rect><rect width="1" height="1" x="4" y="5" fill="#f4f4f5">
      
    </rect><rect width="1" height="1" x="5" y="5" fill="#78716c">
      
    </rect><rect width="1" height="1" x="6" y="5" fill="#78716c">
      
    </rect><rect width="1" height="1" x="7" y="5" fill="#a8a29e">
      
    </rect><rect width="1" height="1" x="8" y="5" fill="#44403c">
      
    </rect><rect width="1" height="1" x="9" y="5" fill="#a1a1aa">
      
    </rect><rect width="1" height="1" x="10" y="5" fill="#71717a">
      
    </rect><rect width="1" height="1" x="11" y="5" fill="#27272a">
      
    </rect><rect width="1" height="1" x="12" y="5" fill="#a1a1aa">
      
    </rect><rect width="1" height="1" x="13" y="5" fill="#52525b">
      
    </rect><rect width="1" height="1" x="14" y="5" fill="#292524">
      
    </rect><rect width="1" height="1" x="15" y="5" fill="transparent">
      
    </rect><rect width="1" height="1" x="0" y="6" fill="transparent">
      
    </rect><rect width="1" height="1" x="1" y="6" fill="#44403c">
      
    </rect><rect width="1" height="1" x="2" y="6" fill="#71717a">
      
    </rect><rect width="1" height="1" x="3" y="6" fill="#71717a">
      
    </rect><rect width="1" height="1" x="4" y="6" fill="#44403c">
      
    </rect><rect width="1" height="1" x="5" y="6" fill="#a1a1aa">
      
    </rect><rect width="1" height="1" x="6" y="6" fill="#27272a">
      
    </rect><rect width="1" height="1" x="7" y="6" fill="transparent">
      
    </rect><rect width="1" height="1" x="8" y="6" fill="transparent">
      
    </rect><rect width="1" height="1" x="9" y="6" fill="#3f3f46">
      
    </rect><rect width="1" height="1" x="10" y="6" fill="#78716c">
      
    </rect><rect width="1" height="1" x="11" y="6" fill="#d6d3d1">
      
    </rect><rect width="1" height="1" x="12" y="6" fill="#71717a">
      
    </rect><rect width="1" height="1" x="13" y="6" fill="#a8a29e">
      
    </rect><rect width="1" height="1" x="14" y="6" fill="#71717a">
      
    </rect><rect width="1" height="1" x="15" y="6" fill="transparent">
      
    </rect><rect width="1" height="1" x="0" y="7" fill="transparent">
      
    </rect><rect width="1" height="1" x="1" y="7" fill="#a1a1aa">
      
    </rect><rect width="1" height="1" x="2" y="7" fill="#71717a">
      
    </rect><rect width="1" height="1" x="3" y="7" fill="#a8a29e">
      
    </rect><rect width="1" height="1" x="4" y="7" fill="#a1a1aa">
      
    </rect><rect width="1" height="1" x="5" y="7" fill="#27272a">
      
    </rect><rect width="1" height="1" x="6" y="7" fill="transparent">
      
    </rect><rect width="1" height="1" x="7" y="7" fill="transparent">
      
    </rect><rect width="1" height="1" x="8" y="7" fill="transparent">
      
    </rect><rect width="1" height="1" x="9" y="7" fill="transparent">
      
    </rect><rect width="1" height="1" x="10" y="7" fill="#a8a29e">
      
    </rect><rect width="1" height="1" x="11" y="7" fill="#57534e">
      
    </rect><rect width="1" height="1" x="12" y="7" fill="#78716c">
      
    </rect><rect width="1" height="1" x="13" y="7" fill="#71717a">
      
    </rect><rect width="1" height="1" x="14" y="7" fill="#27272a">
      
    </rect><rect width="1" height="1" x="15" y="7" fill="transparent">
      
    </rect><rect width="1" height="1" x="0" y="8" fill="transparent">
      
    </rect><rect width="1" height="1" x="1" y="8" fill="#44403c">
      
    </rect><rect width="1" height="1" x="2" y="8" fill="#71717a">
      
    </rect><rect width="1" height="1" x="3" y="8" fill="#52525b">
      
    </rect><rect width="1" height="1" x="4" y="8" fill="#52525b">
      
    </rect><rect width="1" height="1" x="5" y="8" fill="#71717a">
      
    </rect><rect width="1" height="1" x="6" y="8" fill="transparent">
      
    </rect><rect width="1" height="1" x="7" y="8" fill="transparent">
      
    </rect><rect width="1" height="1" x="8" y="8" fill="transparent">
      
    </rect><rect width="1" height="1" x="9" y="8" fill="transparent">
      
    </rect><rect width="1" height="1" x="10" y="8" fill="#44403c">
      
    </rect><rect width="1" height="1" x="11" y="8" fill="#a1a1aa">
      
    </rect><rect width="1" height="1" x="12" y="8" fill="#a8a29e">
      
    </rect><rect width="1" height="1" x="13" y="8" fill="#71717a">
      
    </rect><rect width="1" height="1" x="14" y="8" fill="#a8a29e">
      
    </rect><rect width="1" height="1" x="15" y="8" fill="transparent">
      
    </rect><rect width="1" height="1" x="0" y="9" fill="transparent">
      
    </rect><rect width="1" height="1" x="1" y="9" fill="#a8a29e">
      
    </rect><rect width="1" height="1" x="2" y="9" fill="#a8a29e">
      
    </rect><rect width="1" height="1" x="3" y="9" fill="#a8a29e">
      
    </rect><rect width="1" height="1" x="4" y="9" fill="#d6d3d1">
      
    </rect><rect width="1" height="1" x="5" y="9" fill="#78716c">
      
    </rect><rect width="1" height="1" x="6" y="9" fill="#3f3f46">
      
    </rect><rect width="1" height="1" x="7" y="9" fill="transparent">
      
    </rect><rect width="1" height="1" x="8" y="9" fill="transparent">
      
    </rect><rect width="1" height="1" x="9" y="9" fill="#3f3f46">
      
    </rect><rect width="1" height="1" x="10" y="9" fill="#a1a1aa">
      
    </rect><rect width="1" height="1" x="11" y="9" fill="#44403c">
      
    </rect><rect width="1" height="1" x="12" y="9" fill="#a8a29e">
      
    </rect><rect width="1" height="1" x="13" y="9" fill="#78716c">
      
    </rect><rect width="1" height="1" x="14" y="9" fill="#27272a">
      
    </rect><rect width="1" height="1" x="15" y="9" fill="transparent">
      
    </rect><rect width="1" height="1" x="0" y="10" fill="transparent">
      
    </rect><rect width="1" height="1" x="1" y="10" fill="#18181b">
      
    </rect><rect width="1" height="1" x="2" y="10" fill="#78716c">
      
    </rect><rect width="1" height="1" x="3" y="10" fill="#a1a1aa">
      
    </rect><rect width="1" height="1" x="4" y="10" fill="#18181b">
      
    </rect><rect width="1" height="1" x="5" y="10" fill="#a8a29e">
      
    </rect><rect width="1" height="1" x="6" y="10" fill="#a1a1aa">
      
    </rect><rect width="1" height="1" x="7" y="10" fill="#27272a">
      
    </rect><rect width="1" height="1" x="8" y="10" fill="#a8a29e">
      
    </rect><rect width="1" height="1" x="9" y="10" fill="#78716c">
      
    </rect><rect width="1" height="1" x="10" y="10" fill="#a8a29e">
      
    </rect><rect width="1" height="1" x="11" y="10" fill="#e4e4e7">
      
    </rect><rect width="1" height="1" x="12" y="10" fill="#57534e">
      
    </rect><rect width="1" height="1" x="13" y="10" fill="#d6d3d1">
      
    </rect><rect width="1" height="1" x="14" y="10" fill="#3f3f46">
      
    </rect><rect width="1" height="1" x="15" y="10" fill="transparent">
      
    </rect><rect width="1" height="1" x="0" y="11" fill="transparent">
      
    </rect><rect width="1" height="1" x="1" y="11" fill="transparent">
      
    </rect><rect width="1" height="1" x="2" y="11" fill="#d6d3d1">
      
    </rect><rect width="1" height="1" x="3" y="11" fill="#3f3f46">
      
    </rect><rect width="1" height="1" x="4" y="11" fill="#a8a29e">
      
    </rect><rect width="1" height="1" x="5" y="11" fill="#d6d3d1">
      
    </rect><rect width="1" height="1" x="6" y="11" fill="#44403c">
      
    </rect><rect width="1" height="1" x="7" y="11" fill="#d6d3d1">
      
    </rect><rect width="1" height="1" x="8" y="11" fill="#57534e">
      
    </rect><rect width="1" height="1" x="9" y="11" fill="#e7e5e4">
      
    </rect><rect width="1" height="1" x="10" y="11" fill="#292524">
      
    </rect><rect width="1" height="1" x="11" y="11" fill="#71717a">
      
    </rect><rect width="1" height="1" x="12" y="11" fill="#d6d3d1">
      
    </rect><rect width="1" height="1" x="13" y="11" fill="#27272a">
      
    </rect><rect width="1" height="1" x="14" y="11" fill="transparent">
      
    </rect><rect width="1" height="1" x="15" y="11" fill="transparent">
      
    </rect><rect width="1" height="1" x="0" y="12" fill="transparent">
      
    </rect><rect width="1" height="1" x="1" y="12" fill="transparent">
      
    </rect><rect width="1" height="1" x="2" y="12" fill="transparent">
      
    </rect><rect width="1" height="1" x="3" y="12" fill="#a1a1aa">
      
    </rect><rect width="1" height="1" x="4" y="12" fill="#d6d3d1">
      
    </rect><rect width="1" height="1" x="5" y="12" fill="#44403c">
      
    </rect><rect width="1" height="1" x="6" y="12" fill="#a1a1aa">
      
    </rect><rect width="1" height="1" x="7" y="12" fill="#a8a29e">
      
    </rect><rect width="1" height="1" x="8" y="12" fill="#52525b">
      
    </rect><rect width="1" height="1" x="9" y="12" fill="#a8a29e">
      
    </rect><rect width="1" height="1" x="10" y="12" fill="#d6d3d1">
      
    </rect><rect width="1" height="1" x="11" y="12" fill="#57534e">
      
    </rect><rect width="1" height="1" x="12" y="12" fill="#a8a29e">
      
    </rect><rect width="1" height="1" x="13" y="12" fill="#3f3f46">
      
    </rect><rect width="1" height="1" x="14" y="12" fill="transparent">
      
    </rect><rect width="1" height="1" x="15" y="12" fill="transparent">
      
    </rect><rect width="1" height="1" x="0" y="13" fill="transparent">
      
    </rect><rect width="1" height="1" x="1" y="13" fill="transparent">
      
    </rect><rect width="1" height="1" x="2" y="13" fill="transparent">
      
    </rect><rect width="1" height="1" x="3" y="13" fill="#52525b">
      
    </rect><rect width="1" height="1" x="4" y="13" fill="#1c1917">
      
    </rect><rect width="1" height="1" x="5" y="13" fill="#e4e4e7">
      
    </rect><rect width="1" height="1" x="6" y="13" fill="#71717a">
      
    </rect><rect width="1" height="1" x="7" y="13" fill="#a8a29e">
      
    </rect><rect width="1" height="1" x="8" y="13" fill="#a8a29e">
      
    </rect><rect width="1" height="1" x="9" y="13" fill="#a1a1aa">
      
    </rect><rect width="1" height="1" x="10" y="13" fill="#52525b">
      
    </rect><rect width="1" height="1" x="11" y="13" fill="#d6d3d1">
      
    </rect><rect width="1" height="1" x="12" y="13" fill="transparent">
      
    </rect><rect width="1" height="1" x="13" y="13" fill="transparent">
      
    </rect><rect width="1" height="1" x="14" y="13" fill="transparent">
      
    </rect><rect width="1" height="1" x="15" y="13" fill="transparent">
      
    </rect><rect width="1" height="1" x="0" y="14" fill="transparent">
      
    </rect><rect width="1" height="1" x="1" y="14" fill="transparent">
      
    </rect><rect width="1" height="1" x="2" y="14" fill="transparent">
      
    </rect><rect width="1" height="1" x="3" y="14" fill="transparent">
      
    </rect><rect width="1" height="1" x="4" y="14" fill="transparent">
      
    </rect><rect width="1" height="1" x="5" y="14" fill="#57534e">
      
    </rect><rect width="1" height="1" x="6" y="14" fill="#27272a">
      
    </rect><rect width="1" height="1" x="7" y="14" fill="#a8a29e">
      
    </rect><rect width="1" height="1" x="8" y="14" fill="#27272a">
      
    </rect><rect width="1" height="1" x="9" y="14" fill="#a8a29e">
      
    </rect><rect width="1" height="1" x="10" y="14" fill="transparent">
      
    </rect><rect width="1" height="1" x="11" y="14" fill="transparent">
      
    </rect><rect width="1" height="1" x="12" y="14" fill="transparent">
      
    </rect><rect width="1" height="1" x="13" y="14" fill="transparent">
      
    </rect><rect width="1" height="1" x="14" y="14" fill="transparent">
      
    </rect><rect width="1" height="1" x="15" y="14" fill="transparent">
      
    </rect><rect width="1" height="1" x="0" y="15" fill="transparent">
      
    </rect><rect width="1" height="1" x="1" y="15" fill="transparent">
      
    </rect><rect width="1" height="1" x="2" y="15" fill="transparent">
      
    </rect><rect width="1" height="1" x="3" y="15" fill="transparent">
      
    </rect><rect width="1" height="1" x="4" y="15" fill="transparent">
      
    </rect><rect width="1" height="1" x="5" y="15" fill="transparent">
      
    </rect><rect width="1" height="1" x="6" y="15" fill="transparent">
      
    </rect><rect width="1" height="1" x="7" y="15" fill="transparent">
      
    </rect><rect width="1" height="1" x="8" y="15" fill="transparent">
      
    </rect><rect width="1" height="1" x="9" y="15" fill="transparent">
      
    </rect><rect width="1" height="1" x="10" y="15" fill="transparent">
      
    </rect><rect width="1" height="1" x="11" y="15" fill="transparent">
      
    </rect><rect width="1" height="1" x="12" y="15" fill="transparent">
      
    </rect><rect width="1" height="1" x="13" y="15" fill="transparent">
      
    </rect><rect width="1" height="1" x="14" y="15" fill="transparent">
      
    </rect><rect width="1" height="1" x="15" y="15" fill="transparent">
      
    </rect></svg>