<svg width="64" height="64" viewBox="0 0 64 64" fill="none" xmlns="http://www.w3.org/2000/svg">
    <g clip-path="url(#clip0_1_2)">
        <rect width="64" height="64" fill="white"/>
        <rect width="16" height="16" fill="#EC4899" fill-opacity="0.96"/>
        <rect x="16" width="16" height="16" fill="#F472B6"/>
        <rect x="32" width="16" height="16" fill="#EC4899" fill-opacity="0.9"/>
        <rect x="48" width="16" height="16" fill="#EC4899" fill-opacity="0.72"/>
        <rect y="16" width="16" height="16" fill="#EC4899"/>
        <rect x="16" y="16" width="16" height="16" fill="#EC4899" fill-opacity="0.9"/>
        <rect x="32" y="16" width="16" height="16" fill="#EC4899"/>
        <rect x="48" y="16" width="16" height="16" fill="#EC4899" fill-opacity="0.92"/>
        <rect y="32" width="16" height="16" fill="#EC4899" fill-opacity="0.75"/>
        <rect x="16" y="32" width="16" height="16" fill="#EC4899" fill-opacity="0.94"/>
        <rect x="32" y="32" width="16" height="16" fill="#EC4899" fill-opacity="0.82"/>
        <rect x="48" y="32" width="16" height="16" fill="#EC4899" fill-opacity="0.76"/>
        <rect y="48" width="16" height="16" fill="#EC4899"/>
        <rect x="16" y="48" width="16" height="16" fill="#EC4899" fill-opacity="0.76"/>
        <rect x="32" y="48" width="16" height="16" fill="#EC4899" fill-opacity="0.85"/>
        <rect x="48" y="48" width="16" height="16" fill="#EC4899"/>
    </g>
    <defs>
        <clipPath id="clip0_1_2">
        <rect width="64" height="64" fill="white"/>
        </clipPath>
    </defs>
</svg>
